# xmcd
#
# Track frame offsets: 
#        150
#        13765
#        30465
#        45537
#        64382
#        81630
#        95902
#        108755
#        129822
#        146187
#        156255
#        174409
#
# Disc length: 2555 seconds
#
# Revision: 0
# Processed by: cddbd v1.5PL3 Copyright (c) Steve Scherf et al.
# Submitted via: ExactAudioCopy v0.95a5
#
DISCID=a209f90c
DTITLE=Justin Tyme Band - Gotta Do Whatcha Gotta Do
DYEAR=1900
DGENRE=Country
TTITLE0=Act Like You Care
TTITLE1=Gettin' Toeather Tonyte
TTITLE2=Good Tyme Tonyte
TTITLE3=HellRazin' Tyme
TTITLE4=131 Blues
TTITLE5=My Poor Heart
TTITLE6=Young Boy In You
TTITLE7=Without Her
TTITLE8=Gotta Do Whatcha' Gotta Do
TTITLE9=Maybelline
TTITLE10=Man Of Music
TTITLE11=Good Hearted Woman
EXTD=
EXTT0=
EXTT1=
EXTT2=
EXTT3=
EXTT4=
EXTT5=
EXTT6=
EXTT7=
EXTT8=
EXTT9=
EXTT10=
EXTT11=
PLAYORDER=
